<?xml version="1.0" encoding="utf-8"?>
<!-- Generator: Adobe Illustrator 15.1.0, SVG Export Plug-In . SVG Version: 6.00 Build 0)  -->
<!DOCTYPE svg PUBLIC "-//W3C//DTD SVG 1.1//EN" "http://www.w3.org/Graphics/SVG/1.1/DTD/svg11.dtd">
<svg version="1.1" id="SemiBold" xmlns="http://www.w3.org/2000/svg" xmlns:xlink="http://www.w3.org/1999/xlink" x="0px" y="0px"
	 width="214.957px" height="73.608px" viewBox="7.028 8.032 214.957 73.608" enable-background="new 7.028 8.032 214.957 73.608"
	 xml:space="preserve">
<path d="M221.984,71.05c0,6.53-4.797,10.591-11.321,10.591H18.849c-6.528,0-11.821-5.298-11.821-11.828V19.856
	c0-6.529,5.293-11.824,11.821-11.824h191.814c6.524,0,11.321,5.295,11.321,11.824V71.05z"/>
<g>
	<g>
		<path fill="#FFFFFF" d="M153.93,60.867l-1.615,1.521c-0.371,0.205-0.742,0.443-1.112,0.612c-1.121,0.509-2.261,0.638-3.274,0.638
			c-1.078,0-2.768-0.07-4.49-1.316c-2.396-1.688-3.442-4.588-3.442-7.114c0-5.231,4.259-7.798,7.731-7.798
			c1.215,0,2.463,0.304,3.477,0.945c1.686,1.113,2.122,2.562,2.363,3.34l-7.934,3.205l-2.598,0.201
			c0.841,4.289,3.742,6.784,6.949,6.784c1.603,0,2.791-0.521,3.883-1.062C153.866,60.825,154.085,60.711,153.93,60.867z
			 M149.143,52.334c0.646-0.234,0.979-0.438,0.979-0.906c0-1.348-1.524-2.904-3.345-2.904c-1.35,0-3.879,1.051-3.879,4.695
			c0,0.569,0.066,1.176,0.102,1.781L149.143,52.334z"/>
		<path fill="#FFFFFF" d="M137.342,60.605c0,1.312,0.234,1.516,1.344,1.617c0.578,0.068,1.153,0.1,1.725,0.166l-1.248,0.743h-5.947
			c0.78-1.012,0.914-1.112,0.914-1.787v-0.753l-0.013-20.063h-2.626l2.527-1.218h4.825c-1.046,0.605-1.358,0.975-1.493,2.155
			L137.342,60.605z"/>
		<path fill="#FFFFFF" d="M128.119,49.066c0.773,0.637,2.393,1.988,2.393,4.553c0,2.499-1.41,3.677-2.83,4.792
			c-0.437,0.438-0.945,0.915-0.945,1.651c0,0.746,0.51,1.15,0.877,1.453l1.219,0.94c1.482,1.251,2.833,2.397,2.833,4.728
			c0,3.176-3.072,6.375-8.877,6.375c-4.89,0-7.254-2.328-7.254-4.824c0-1.217,0.604-2.938,2.601-4.115
			c2.092-1.279,4.928-1.45,6.444-1.551c-0.474-0.611-1.015-1.252-1.015-2.299c0-0.571,0.172-0.912,0.338-1.314
			c-0.369,0.035-0.741,0.07-1.08,0.07c-3.578,0-5.602-2.67-5.602-5.301c0-1.553,0.707-3.273,2.161-4.521
			c1.925-1.584,4.218-1.857,6.041-1.857h6.954l-2.162,1.221H128.119L128.119,49.066z M125.729,64.047
			c-0.276-0.036-0.442-0.036-0.776-0.036c-0.306,0-2.13,0.066-3.541,0.54c-0.747,0.273-2.906,1.08-2.906,3.479
			c0,2.392,2.331,4.115,5.938,4.115c3.238,0,4.959-1.553,4.959-3.644C129.4,66.78,128.288,65.872,125.729,64.047z M126.697,57.635
			c0.781-0.777,0.849-1.854,0.849-2.466c0-2.427-1.446-6.207-4.252-6.207c-0.875,0-1.823,0.438-2.36,1.118
			c-0.57,0.703-0.742,1.615-0.742,2.492c0,2.26,1.317,6.008,4.218,6.008C125.254,58.58,126.164,58.169,126.697,57.635z"/>
		<path fill="#FFFFFF" d="M107.197,63.568c-5.364,0-8.234-4.178-8.234-7.959c0-4.418,3.608-8.199,8.74-8.199
			c4.961,0,8.068,3.884,8.068,7.962C115.771,59.354,112.7,63.568,107.197,63.568z M111.417,60.839
			c0.816-1.08,1.014-2.428,1.014-3.741c0-2.973-1.416-8.641-5.601-8.641c-1.113,0-2.234,0.436-3.042,1.146
			c-1.318,1.181-1.553,2.664-1.553,4.119c0,3.334,1.647,8.834,5.737,8.834C109.293,62.557,110.64,61.917,111.417,60.839z"/>
		<path fill="#FFFFFF" d="M89.238,63.568c-5.365,0-8.23-4.178-8.23-7.959c0-4.418,3.609-8.199,8.739-8.199
			c4.958,0,8.062,3.884,8.062,7.962C97.809,59.354,94.742,63.568,89.238,63.568z M93.459,60.839c0.81-1.08,1.012-2.428,1.012-3.741
			c0-2.973-1.42-8.641-5.601-8.641c-1.117,0-2.226,0.436-3.036,1.146c-1.32,1.181-1.554,2.664-1.554,4.119
			c0,3.334,1.654,8.834,5.737,8.834C91.335,62.557,92.68,61.917,93.459,60.839z"/>
		<path fill="#FFFFFF" d="M78.863,62.398l-4.524,1.035c-1.833,0.289-3.479,0.543-5.222,0.543c-8.727,0-12.051-6.424-12.051-11.449
			c0-6.141,4.711-11.832,12.778-11.832c1.707,0,3.35,0.251,4.846,0.658c2.371,0.667,3.479,1.487,4.173,1.969l-2.628,2.496
			l-1.108,0.248l0.79-1.26c-1.07-1.045-3.037-2.974-6.77-2.974c-4.991,0-8.757,3.794-8.757,9.333c0,5.949,4.3,11.545,11.194,11.545
			c2.026,0,3.069-0.406,4.016-0.787v-5.1l-4.776,0.257l2.532-1.36h6.703L79.24,56.51c-0.222,0.188-0.251,0.252-0.313,0.504
			c-0.033,0.288-0.063,1.204-0.063,1.526L78.863,62.398L78.863,62.398z"/>
	</g>
	<g>
		<path fill="#FFFFFF" d="M163.656,61.011v8.597h-1.707V47.734h1.707v2.49c1.111-1.608,3.144-2.886,5.504-2.886
			c4.232,0,7.084,3.211,7.084,8.294c0,5.049-2.852,8.327-7.084,8.327C166.932,63.961,164.938,62.812,163.656,61.011z M174.41,55.634
			c0-3.831-1.997-6.753-5.538-6.753c-2.199,0-4.302,1.729-5.216,3.235v7.001c0.914,1.51,3.017,3.301,5.216,3.301
			C172.413,62.418,174.41,59.471,174.41,55.634z"/>
		<path fill="#FFFFFF" d="M178.575,63.566V41.696h1.706v21.871H178.575z"/>
		<path fill="#FFFFFF" d="M199.436,68.191c0.364,0.162,0.987,0.264,1.383,0.264c1.045,0,1.771-0.428,2.425-1.936l1.245-2.82
			l-6.725-15.965h1.903l5.769,13.834l5.713-13.834h1.931l-8.201,19.313c-0.851,1.99-2.188,2.947-4.028,2.947
			c-0.553,0-1.279-0.099-1.707-0.229L199.436,68.191z"/>
		<path fill="#FFFFFF" d="M194.449,63.52c-0.114-0.549-0.2-1.031-0.264-1.437c-0.053-0.403-0.082-0.815-0.082-1.233
			c-0.586,0.858-1.414,1.573-2.474,2.137c-1.06,0.566-2.065,0.846-3.448,0.846c-1.662,0-2.953-0.409-3.875-1.239
			c-0.918-0.829-1.379-1.952-1.379-3.373c0-1.419,0.668-2.571,2.002-3.452c1.334-0.885,3.059-1.324,5.192-1.324h3.981v-1.967
			c0-1.134-0.388-2.023-1.158-2.67c-0.773-0.646-1.859-0.975-3.268-0.975c-1.287,0-2.332,0.299-3.127,0.881
			c-0.787,0.594-1.185,1.33-1.185,2.217h-1.747l-0.036-0.085c-0.063-1.194,0.483-2.245,1.647-3.149
			c1.156-0.905,2.674-1.36,4.541-1.36c1.86,0,3.367,0.448,4.502,1.342c1.135,0.886,1.703,2.164,1.703,3.837v7.811
			c0,0.561,0.026,1.103,0.098,1.631c0.072,0.529,0.188,1.057,0.34,1.566h-1.965V63.52z M188.393,62.275
			c1.449,0,2.491-0.323,3.558-0.965c1.058-0.638,1.776-1.469,2.155-2.475v-3.04h-4c-1.528,0-2.793,0.338-3.789,1.021
			c-0.996,0.681-1.502,1.504-1.502,2.461c0,0.902,0.319,1.625,0.957,2.172C186.408,62.002,187.279,62.275,188.393,62.275z"/>
	</g>
</g>
<g>
	<polygon fill="none" points="34.776,54.742 40.252,49.266 40.25,49.266 34.776,54.742 17.299,37.267 17.298,37.267 34.776,54.745 
		17.271,72.251 17.271,72.251 34.776,54.745 40.276,60.245 40.279,60.245 	"/>
	
		<linearGradient id="SVGID_1_" gradientUnits="userSpaceOnUse" x1="731.6094" y1="762.7139" x2="708.5312" y2="777.1572" gradientTransform="matrix(0.7071 0.7071 0.7071 -0.7071 -1025.543 75.3332)">
		<stop  offset="0" style="stop-color:#D6FFA1"/>
		<stop  offset="0.3264" style="stop-color:#93E2A7"/>
		<stop  offset="1" style="stop-color:#00A3B5"/>
	</linearGradient>
	<path fill="url(#SVGID_1_)" d="M40.25,49.266L18.914,37.534c-0.604-0.331-1.163-0.408-1.615-0.268l17.478,17.476L40.25,49.266z"/>
	
		<linearGradient id="SVGID_2_" gradientUnits="userSpaceOnUse" x1="718.1953" y1="775.0527" x2="748.1101" y2="767.2325" gradientTransform="matrix(0.7071 0.7071 0.7071 -0.7071 -1025.543 75.3332)">
		<stop  offset="0" style="stop-color:#FF177B"/>
		<stop  offset="0.6721" style="stop-color:#FFA976"/>
		<stop  offset="1" style="stop-color:#FFEC73"/>
	</linearGradient>
	<path fill="url(#SVGID_2_)" d="M40.279,60.245l7.283-4.005c1.477-0.815,1.477-2.143,0-2.954l-7.311-4.021l-5.476,5.477
		L40.279,60.245z"/>
	
		<linearGradient id="SVGID_3_" gradientUnits="userSpaceOnUse" x1="734.8926" y1="751.7617" x2="702.4491" y2="770.8495" gradientTransform="matrix(0.7071 0.7071 0.7071 -0.7071 -1025.543 75.3332)">
		<stop  offset="0" style="stop-color:#63FFD4"/>
		<stop  offset="0.4854" style="stop-color:#32A0BA"/>
		<stop  offset="0.8349" style="stop-color:#1262A9"/>
		<stop  offset="1" style="stop-color:#064AA2"/>
	</linearGradient>
	<path fill="url(#SVGID_3_)" d="M17.298,37.267c-0.649,0.203-1.069,0.86-1.069,1.854l0.004,31.284c0,0.981,0.407,1.63,1.038,1.846
		l17.506-17.506L17.298,37.267z"/>
	
		<linearGradient id="SVGID_4_" gradientUnits="userSpaceOnUse" x1="746.6729" y1="766.916" x2="726.6953" y2="740.5967" gradientTransform="matrix(0.7071 0.7071 0.7071 -0.7071 -1025.543 75.3332)">
		<stop  offset="0" style="stop-color:#FF4521"/>
		<stop  offset="0.3411" style="stop-color:#D43E65"/>
		<stop  offset="0.7935" style="stop-color:#9F36B9"/>
		<stop  offset="1" style="stop-color:#8A33DB"/>
	</linearGradient>
	<path fill="url(#SVGID_4_)" d="M17.271,72.251c0.454,0.154,1.024,0.082,1.643-0.258l21.363-11.748l-5.5-5.5L17.271,72.251z"/>
</g>
<g>
	<g>
		<path fill="#FFFFFF" d="M57.074,29.085V18.408h3.97c3.345,0,5.586,2.209,5.586,5.331c0,3.152-2.241,5.346-5.57,5.346H57.074z
			 M64.708,23.739c0-2.049-1.28-3.682-3.649-3.682h-2.113v7.379h2.098C63.364,27.437,64.708,25.771,64.708,23.739z"/>
		<path fill="#FFFFFF" d="M68.834,29.085V18.408h1.872v10.677H68.834z"/>
		<path fill="#FFFFFF" d="M72.689,27.58l1.057-1.456c0.72,0.784,1.889,1.488,3.377,1.488c1.537,0,2.129-0.752,2.129-1.473
			c0-2.241-6.21-0.849-6.21-4.77c0-1.777,1.536-3.138,3.889-3.138c1.649,0,3.01,0.544,3.986,1.505L79.86,21.13
			c-0.849-0.849-1.984-1.232-3.105-1.232c-1.088,0-1.793,0.544-1.793,1.328c0,2.001,6.211,0.769,6.211,4.738
			c0,1.776-1.265,3.313-4.13,3.313C75.074,29.277,73.649,28.572,72.689,27.58z"/>
		<path fill="#FFFFFF" d="M83.282,29.085V18.408h4.706c2.24,0,3.473,1.521,3.473,3.346c0,1.809-1.248,3.329-3.473,3.329h-2.834
			v4.002H83.282z M89.54,21.754c0-1.024-0.752-1.696-1.809-1.696h-2.577v3.377h2.577C88.788,23.435,89.54,22.763,89.54,21.754z"/>
		<path fill="#FFFFFF" d="M92.96,23.755c0-3.186,2.257-5.522,5.459-5.522c3.185,0,5.458,2.337,5.458,5.522s-2.273,5.522-5.458,5.522
			C95.217,29.277,92.96,26.94,92.96,23.755z M101.957,23.755c0-2.209-1.393-3.857-3.537-3.857c-2.161,0-3.538,1.648-3.538,3.857
			c0,2.192,1.377,3.857,3.538,3.857C100.564,27.612,101.957,25.947,101.957,23.755z"/>
		<path fill="#FFFFFF" d="M113.508,29.085l-5.57-7.635v7.635h-1.872V18.408h1.921l5.458,7.396v-7.396h1.874v10.677H113.508z"/>
		<path fill="#FFFFFF" d="M117.986,29.085V18.408h1.871v10.677H117.986z"/>
		<path fill="#FFFFFF" d="M122.529,29.085V18.408h5.25c1.969,0,3.041,1.217,3.041,2.722c0,1.328-0.865,2.241-1.857,2.449
			c1.152,0.176,2.064,1.313,2.064,2.608c0,1.665-1.088,2.897-3.105,2.897L122.529,29.085L122.529,29.085z M128.898,21.434
			c0-0.784-0.543-1.376-1.488-1.376h-3.01v2.753h3.01C128.355,22.811,128.898,22.25,128.898,21.434z M129.107,25.947
			c0-0.8-0.562-1.488-1.617-1.488h-3.09v2.978h3.09C128.498,27.437,129.107,26.876,129.107,25.947z"/>
		<path fill="#FFFFFF" d="M133.186,29.085V18.408h1.871v9.028h4.707v1.648L133.186,29.085L133.186,29.085z"/>
		<path fill="#FFFFFF" d="M141.809,29.085V18.408h7.314v1.649h-5.443v2.753h5.332v1.648h-5.332v2.978h5.443v1.648L141.809,29.085
			L141.809,29.085z"/>
		<path fill="#FFFFFF" d="M155.279,27.58l1.057-1.456c0.721,0.784,1.889,1.488,3.377,1.488c1.537,0,2.129-0.752,2.129-1.473
			c0-2.241-6.209-0.849-6.209-4.77c0-1.777,1.535-3.138,3.889-3.138c1.648,0,3.011,0.544,3.986,1.505l-1.057,1.393
			c-0.85-0.849-1.986-1.232-3.105-1.232c-1.088,0-1.793,0.544-1.793,1.328c0,2.001,6.211,0.769,6.211,4.738
			c0,1.776-1.266,3.313-4.131,3.313C157.664,29.277,156.24,28.572,155.279,27.58z"/>
		<path fill="#FFFFFF" d="M165.871,24.859v-6.451h1.904v6.403c0,1.696,0.945,2.801,2.723,2.801c1.775,0,2.721-1.104,2.721-2.801
			v-6.403h1.904v6.451c0,2.641-1.521,4.418-4.625,4.418C167.408,29.277,165.871,27.5,165.871,24.859z"/>
		<path fill="#FFFFFF" d="M183.891,29.085l-2.354-3.985h-1.873v3.985h-1.873V18.408h4.689c2.112,0,3.506,1.361,3.506,3.346
			c0,1.889-1.248,2.93-2.545,3.138l2.625,4.193H183.891z M184.066,21.738c0-1.024-0.771-1.681-1.826-1.681h-2.576v3.394h2.576
			C183.297,23.451,184.066,22.778,184.066,21.738z"/>
	</g>
</g>
</svg>
